<svg width="64" height="40" viewBox="0 0 64 40" fill="none" xmlns="http://www.w3.org/2000/svg">
<path fill-rule="evenodd" clip-rule="evenodd" d="M0 4C0 1.79086 1.79086 0 4 0H60C62.2091 0 64 1.79086 64 4C64 6.20914 62.2091 8 60 8H4C1.79086 8 0 6.20914 0 4ZM0 20C0 17.7909 1.79086 16 4 16H60C62.2091 16 64 17.7909 64 20C64 22.2091 62.2091 24 60 24H4C1.79086 24 0 22.2091 0 20ZM4 32C1.79086 32 0 33.7909 0 36C0 38.2091 1.79086 40 4 40H60C62.2091 40 64 38.2091 64 36C64 33.7909 62.2091 32 60 32H4Z" fill="white"/>
</svg>
