<svg width="15" height="15" viewBox="0 0 15 15" fill="none" xmlns="http://www.w3.org/2000/svg">
<path d="M3.64 2.27L7.5 6.13L11.34 2.29C11.4248 2.19972 11.527 2.12749 11.6404 2.07766C11.7538 2.02783 11.8761 2.00141 12 2C12.2652 2 12.5196 2.10536 12.7071 2.29289C12.8946 2.48043 13 2.73478 13 3C13.0023 3.1226 12.9796 3.24439 12.9332 3.35788C12.8867 3.47138 12.8176 3.57419 12.73 3.66L8.84 7.5L12.73 11.39C12.8948 11.5512 12.9915 11.7696 13 12C13 12.2652 12.8946 12.5196 12.7071 12.7071C12.5196 12.8946 12.2652 13 12 13C11.8726 13.0053 11.7454 12.984 11.6266 12.9375C11.5078 12.8911 11.4 12.8204 11.31 12.73L7.5 8.87L3.65 12.72C3.5655 12.8073 3.46456 12.8769 3.353 12.925C3.24144 12.9731 3.12146 12.9986 3 13C2.73478 13 2.48043 12.8946 2.29289 12.7071C2.10536 12.5196 2 12.2652 2 12C1.99767 11.8774 2.02041 11.7556 2.06684 11.6421C2.11327 11.5286 2.18241 11.4258 2.27 11.34L6.16 7.5L2.27 3.61C2.10518 3.44876 2.00854 3.23041 2 3C2 2.73478 2.10536 2.48043 2.29289 2.29289C2.48043 2.10536 2.73478 2 3 2C3.24 2.003 3.47 2.1 3.64 2.27Z" fill="white"/>
</svg>
