<svg width="85" height="66" viewBox="0 0 85 66" fill="none" xmlns="http://www.w3.org/2000/svg">
<path d="M12.1333 40.8401H34.14V51.8668H45.12V31.9401H23.1533L45.12 9.92676H34.14L12.1333 31.9401V40.8401Z" fill="white"/>
<path d="M49.86 20.9468L60.8467 9.92676H49.86V20.9468Z" fill="white"/>
<path d="M60.8467 20.9468L49.86 31.9401V42.9268H60.8467V31.9401L71.8666 20.9468V9.92676H60.8467V20.9468Z" fill="white"/>
<path d="M71.8667 31.9399L60.8467 42.9266H71.8667V31.9399Z" fill="white"/>
<path d="M53.0977 54.0469L56.5157 54.0537C57.1218 54.0628 57.6687 54.1745 58.1563 54.3887C58.644 54.6029 59.0222 54.9242 59.2911 55.3525C59.56 55.7809 59.6693 56.3255 59.6192 56.9863C59.5782 57.5195 59.4438 57.973 59.2159 58.3467C58.9926 58.7204 58.6986 59.0371 58.3341 59.2969C57.9695 59.5521 57.5525 59.7686 57.0831 59.9463L56.4542 60.2402H53.2481L53.5011 58.7568L55.7227 58.7705C56.0736 58.766 56.3927 58.6999 56.6798 58.5723C56.9714 58.4401 57.213 58.2533 57.4044 58.0117C57.6003 57.7656 57.7234 57.4626 57.7735 57.1025C57.8145 56.7835 57.7895 56.5101 57.6983 56.2822C57.6117 56.0498 57.4613 55.8721 57.2471 55.749C57.0375 55.6214 56.7755 55.5508 56.461 55.5371L54.6837 55.5303L53.2139 64H51.3751L53.0977 54.0469ZM56.878 64L55.4083 59.543L57.254 59.5361L58.8331 63.8975V64H56.878ZM62.3503 54.0469L63.6696 58.6816L66.6023 54.0469H68.7077L64.3327 60.4453L63.7175 64H61.8581L62.5144 60.2607L60.4089 54.0537L62.3503 54.0469ZM71.6507 61.9766L75.2738 54.0469H77.3656L72.3959 64H70.9945L71.6507 61.9766ZM70.6527 54.0469L71.8148 62.1406L71.849 64H70.5228L68.6839 54.0469H70.6527ZM83.2207 62.5234L82.9609 64H77.8203L78.0732 62.5234H83.2207ZM80.1172 54.0469L78.3877 64H76.5488L78.2715 54.0469H80.1172ZM83.3027 58.1553L83.0566 59.5977H78.5791L78.832 58.1553H83.3027ZM84.6631 54.0469L84.4033 55.5303H79.2832L79.5498 54.0469H84.6631Z" fill="white"/>
</svg>
