<svg width="387" height="191" viewBox="0 0 387 191" fill="none" xmlns="http://www.w3.org/2000/svg">
<g clip-path="url(#clip0_26_43)">
<rect x="3" y="21" width="381" height="167" fill="white"/>
<rect x="323" y="19.9886" width="21.9748" height="24.1704" transform="rotate(-46.6848 323 19.9886)" fill="white"/>
<path fill-rule="evenodd" clip-rule="evenodd" d="M326 21.2863C326.885 21.2863 327.636 20.7114 327.899 19.9147C327.983 19.8303 328.06 19.7372 328.129 19.6357L337.962 5.26418L350.652 20.333C351.014 20.7626 351.518 21.0017 352.037 21.0395C352.322 21.1968 352.651 21.2863 353 21.2863H379C381.209 21.2863 383 23.0772 383 25.2863V183.286C383 185.495 381.209 187.286 379 187.286H8C5.79086 187.286 4 185.495 4 183.286V25.2863C4 23.0772 5.79086 21.2863 8 21.2863H326ZM8 191.286C3.58172 191.286 0 187.705 0 183.286V25.2863C0 20.868 3.58172 17.2863 8 17.2863H324.89L336.122 0.870819C336.746 -0.0407906 337.99 -0.27416 338.902 0.349573C339.26 0.594585 339.513 0.935406 339.651 1.31421C339.889 1.43251 340.106 1.60029 340.288 1.81616L353.316 17.2863H379C383.418 17.2863 387 20.868 387 25.2863V183.286C387 187.705 383.418 191.286 379 191.286H8Z" fill="black"/>
</g>
<defs>
<clipPath id="clip0_26_43">
<rect width="387" height="191" fill="white"/>
</clipPath>
</defs>
</svg>
